HIERARCHY
ROOT Joint1
{
	OFFSET 0.000000 0.000000 0.000000
	CHANNELS 6 Xposition Yposition Zposition Xrotation Yrotation Zrotation
	JOINT Joint2
	{
		OFFSET -0.000000 0.000000 1.456275
		CHANNELS 6 Xposition Yposition Zposition Xrotation Yrotation Zrotation
		JOINT Joint3
		{
			OFFSET -0.000000 0.000002 1.471446
			CHANNELS 6 Xposition Yposition Zposition Xrotation Yrotation Zrotation
			JOINT Joint4
			{
				OFFSET 0.625745 0.000000 0.917755
				CHANNELS 6 Xposition Yposition Zposition Xrotation Yrotation Zrotation
				JOINT Joint5
				{
					OFFSET -0.629534 0.000001 0.940221
					CHANNELS 6 Xposition Yposition Zposition Xrotation Yrotation Zrotation
					JOINT Joint6
					{
						OFFSET -0.000001 0.113772 1.960660
						CHANNELS 6 Xposition Yposition Zposition Xrotation Yrotation Zrotation
						JOINT Joint7
						{
							OFFSET -0.669733 -0.113771 0.388340
							CHANNELS 6 Xposition Yposition Zposition Xrotation Yrotation Zrotation
							End Site
							{
								OFFSET 0.005509 0.005509 0.438980
							}
						}
					}
				}
			}
		}
	}
}
MOTION
Frames: 9
Frame Time: 0.041667
0.000000 0.000000 0.000000 -0.000000 1.019410 69.891529 -0.000000 -0.000000 1.456275 -0.000000 -21.746718 -0.000002 -0.000000 0.000002 1.471446 0.000000 -1.133458 1.479077 0.625745 0.000000 0.917755 0.000010 122.263228 -0.000002 -0.629534 0.000001 0.940221 0.000000 1.709735 -43.097104 -0.000001 0.113772 1.960661 -88.303882 142.842833 0.000002 -0.669733 -0.113771 0.388340 0.293946 2.740233 55.791587 
0.000000 0.000000 0.000000 -0.000000 1.019410 71.276193 -0.000000 0.000000 1.456275 -0.000000 -21.286469 -0.000000 -0.000000 0.000002 1.471446 0.000000 -1.133459 1.509065 0.625745 0.000000 0.917755 0.000010 122.010538 -0.000002 -0.629534 0.000001 0.940221 -0.000002 1.709736 -43.950618 -0.000001 0.113772 1.960660 -88.303882 143.890229 -0.000001 -0.669733 -0.113771 0.388340 0.298786 2.712842 54.224090 
0.000000 0.000000 0.000000 -0.000000 1.019410 72.733107 -0.000000 0.000000 1.456275 -0.000001 -20.802210 0.000001 -0.000000 0.000002 1.471446 -0.000001 -1.133461 1.540617 0.625745 0.000000 0.917755 0.000005 121.744652 -0.000003 -0.629533 0.000001 0.940221 0.000001 1.709736 -44.848658 -0.000001 0.113772 1.960661 -88.303882 144.992267 0.000000 -0.669733 -0.113771 0.388341 0.303063 2.683892 52.574865 
0.000000 0.000000 0.000000 -0.000000 1.019410 74.551242 -0.000000 -0.000000 1.456275 0.000000 -20.197890 -0.000000 -0.000000 0.000002 1.471446 -0.000000 -1.133461 1.579991 0.625745 0.000000 0.917755 0.000006 121.412855 -0.000000 -0.629534 0.000001 0.940220 0.000002 1.709736 -45.969359 -0.000001 0.113772 1.960660 -88.303882 146.367539 0.000002 -0.669733 -0.113771 0.388340 0.307232 2.647611 50.516776 
0.000000 0.000000 0.000000 -0.000000 1.019410 76.867550 -0.000000 0.000000 1.456275 -0.000000 -19.427974 -0.000001 -0.000000 0.000002 1.471445 0.000000 -1.133461 1.630157 0.625745 0.000000 0.917755 0.000003 120.990135 0.000001 -0.629534 0.000001 0.940221 0.000000 1.709736 -47.397131 -0.000001 0.113772 1.960660 -88.303875 148.119633 0.000001 -0.669733 -0.113771 0.388340 0.310648 2.601208 47.894871 
0.000000 0.000000 0.000000 -0.000000 1.019410 79.210954 -0.000000 0.000000 1.456275 -0.000000 -18.649058 -0.000000 -0.000000 0.000002 1.471446 -0.000000 -1.133460 1.680907 0.625745 0.000000 0.917755 0.000006 120.562483 -0.000004 -0.629534 0.000001 0.940221 -0.000001 1.709736 -48.841610 -0.000001 0.113772 1.960660 -88.303882 149.892244 0.000002 -0.669733 -0.113771 0.388341 0.311938 2.554158 45.242391 
0.000000 0.000000 0.000000 -0.000000 1.019410 81.095314 -0.000000 0.000000 1.456275 0.000000 -18.022719 0.000001 -0.000000 0.000002 1.471445 0.000000 -1.133460 1.721718 0.625745 0.000000 0.917755 0.000004 120.218597 -0.000001 -0.629533 0.000001 0.940221 0.000001 1.709736 -50.003128 -0.000001 0.113772 1.960661 -88.303882 151.317609 0.000002 -0.669733 -0.113771 0.388340 0.311393 2.516313 43.109569 
0.000000 0.000000 0.000000 -0.000000 1.019410 82.582328 -0.000000 0.000000 1.456275 -0.000000 -17.528456 0.000000 -0.000000 0.000002 1.471446 -0.000000 -1.133458 1.753923 0.625745 0.000000 0.917755 0.000004 119.947220 -0.000001 -0.629534 0.000001 0.940221 0.000001 1.709737 -50.919730 -0.000001 0.113772 1.960660 -88.303882 152.442432 0.000001 -0.669733 -0.113771 0.388340 0.309968 2.486479 41.426528 
0.000000 0.000000 0.000000 -0.000000 1.019410 83.870659 -0.000000 -0.000000 1.456275 -0.000000 -17.100227 -0.000000 -0.000000 0.000002 1.471446 0.000000 -1.133459 1.781824 0.625745 0.000000 0.917755 0.000005 119.712097 -0.000002 -0.629534 0.000001 0.940221 -0.000000 1.709736 -51.713865 -0.000001 0.113772 1.960660 -88.303882 153.416963 0.000002 -0.669733 -0.113771 0.388340 0.308024 2.460669 39.968378 
